<mxfile host="app.diagrams.net" modified="2022-07-13T05:48:19.778Z" agent="5.0 (Macintosh)" etag="Egoe5EcOXUtvMpt_4ADw" version="20.1.1" type="github">
  <diagram id="IRsSvw7N2JVn_KLH-h0_" name="Page-1">
    <mxGraphModel dx="1868" dy="781" grid="1" gridSize="10" guides="1" tooltips="1" connect="1" arrows="1" fold="1" page="1" pageScale="1" pageWidth="850" pageHeight="1100" math="0" shadow="0">
      <root>
        <mxCell id="0" />
        <mxCell id="1" parent="0" />
        <mxCell id="YoXsgUGoJQbxuJQZpZ67-3" value="" style="curved=1;endArrow=classic;html=1;rounded=0;exitX=0;exitY=0.5;exitDx=0;exitDy=0;sketch=1;shadow=1;" parent="1" source="YoXsgUGoJQbxuJQZpZ67-5" edge="1">
          <mxGeometry width="50" height="50" relative="1" as="geometry">
            <mxPoint x="360" y="600" as="sourcePoint" />
            <mxPoint x="120" y="240" as="targetPoint" />
            <Array as="points">
              <mxPoint x="120" y="1080" />
              <mxPoint x="120" y="900" />
            </Array>
          </mxGeometry>
        </mxCell>
        <mxCell id="YoXsgUGoJQbxuJQZpZ67-5" value="" style="ellipse;shape=doubleEllipse;whiteSpace=wrap;html=1;aspect=fixed;" parent="1" vertex="1">
          <mxGeometry x="380" y="1040" width="40" height="40" as="geometry" />
        </mxCell>
        <mxCell id="YoXsgUGoJQbxuJQZpZ67-8" value="" style="endArrow=classic;html=1;rounded=0;exitX=0.5;exitY=0;exitDx=0;exitDy=0;sketch=1;shadow=1;" parent="1" source="YoXsgUGoJQbxuJQZpZ67-5" edge="1">
          <mxGeometry width="50" height="50" relative="1" as="geometry">
            <mxPoint x="440" y="810" as="sourcePoint" />
            <mxPoint x="400" y="240" as="targetPoint" />
          </mxGeometry>
        </mxCell>
        <mxCell id="YoXsgUGoJQbxuJQZpZ67-9" value="&lt;font style=&quot;font-size: 18px;&quot; data-font-src=&quot;https://fonts.googleapis.com/css?family=Roboto&quot; face=&quot;Roboto&quot;&gt;Professional&lt;/font&gt;" style="rounded=1;whiteSpace=wrap;html=1;strokeWidth=2;fillWeight=4;hachureGap=8;hachureAngle=45;fillColor=#dae8fc;sketch=1;strokeColor=#6c8ebf;" parent="1" vertex="1">
          <mxGeometry x="70" y="20" width="120" height="60" as="geometry" />
        </mxCell>
        <mxCell id="YoXsgUGoJQbxuJQZpZ67-10" value="&lt;font style=&quot;font-size: 18px;&quot; data-font-src=&quot;https://fonts.googleapis.com/css?family=Roboto&quot; face=&quot;Roboto&quot;&gt;Education&lt;/font&gt;" style="rounded=1;whiteSpace=wrap;html=1;strokeWidth=2;fillWeight=4;hachureGap=8;hachureAngle=45;fillColor=#d5e8d4;sketch=1;strokeColor=#82b366;" parent="1" vertex="1">
          <mxGeometry x="340" y="20" width="120" height="60" as="geometry" />
        </mxCell>
        <mxCell id="YoXsgUGoJQbxuJQZpZ67-11" value="&lt;font style=&quot;font-size: 18px;&quot; data-font-src=&quot;https://fonts.googleapis.com/css?family=Roboto&quot; face=&quot;Roboto&quot;&gt;Research&lt;/font&gt;" style="rounded=1;whiteSpace=wrap;html=1;strokeWidth=2;fillWeight=4;hachureGap=8;hachureAngle=45;fillColor=#f8cecc;sketch=1;strokeColor=#b85450;" parent="1" vertex="1">
          <mxGeometry x="620" y="20" width="120" height="60" as="geometry" />
        </mxCell>
        <mxCell id="YoXsgUGoJQbxuJQZpZ67-12" value="" style="endArrow=none;dashed=1;html=1;dashPattern=1 3;strokeWidth=2;rounded=0;fontFamily=Roboto;fontSource=https%3A%2F%2Ffonts.googleapis.com%2Fcss%3Ffamily%3DRoboto;sketch=1;endSize=2;" parent="1" edge="1">
          <mxGeometry width="50" height="50" relative="1" as="geometry">
            <mxPoint y="520" as="sourcePoint" />
            <mxPoint x="800" y="520" as="targetPoint" />
          </mxGeometry>
        </mxCell>
        <mxCell id="YoXsgUGoJQbxuJQZpZ67-13" value="&lt;font style=&quot;font-size: 18px;&quot;&gt;B.Sc &lt;/font&gt;" style="edgeLabel;html=1;align=center;verticalAlign=middle;resizable=0;points=[];fontFamily=Roboto;" parent="YoXsgUGoJQbxuJQZpZ67-12" vertex="1" connectable="0">
          <mxGeometry x="0.94" y="-1" relative="1" as="geometry">
            <mxPoint y="-2" as="offset" />
          </mxGeometry>
        </mxCell>
        <mxCell id="YoXsgUGoJQbxuJQZpZ67-14" value="" style="curved=1;endArrow=classic;html=1;rounded=0;fontFamily=Roboto;fontSource=https%3A%2F%2Ffonts.googleapis.com%2Fcss%3Ffamily%3DRoboto;fontSize=18;sketch=1;shadow=1;" parent="1" edge="1">
          <mxGeometry width="50" height="50" relative="1" as="geometry">
            <mxPoint x="400" y="720" as="sourcePoint" />
            <mxPoint x="680" y="240" as="targetPoint" />
            <Array as="points">
              <mxPoint x="400" y="620" />
              <mxPoint x="700" y="660" />
            </Array>
          </mxGeometry>
        </mxCell>
        <mxCell id="YoXsgUGoJQbxuJQZpZ67-15" value="" style="endArrow=none;dashed=1;html=1;dashPattern=1 3;strokeWidth=2;rounded=0;fontFamily=Roboto;fontSource=https%3A%2F%2Ffonts.googleapis.com%2Fcss%3Ffamily%3DRoboto;sketch=1;endSize=2;" parent="1" edge="1">
          <mxGeometry width="50" height="50" relative="1" as="geometry">
            <mxPoint y="240" as="sourcePoint" />
            <mxPoint x="800" y="240" as="targetPoint" />
          </mxGeometry>
        </mxCell>
        <mxCell id="YoXsgUGoJQbxuJQZpZ67-16" value="&lt;font style=&quot;font-size: 18px;&quot;&gt;Today&lt;/font&gt;" style="edgeLabel;html=1;align=center;verticalAlign=middle;resizable=0;points=[];fontFamily=Roboto;" parent="YoXsgUGoJQbxuJQZpZ67-15" vertex="1" connectable="0">
          <mxGeometry x="0.94" y="-1" relative="1" as="geometry">
            <mxPoint x="5" y="-2" as="offset" />
          </mxGeometry>
        </mxCell>
        <mxCell id="YoXsgUGoJQbxuJQZpZ67-17" value="Abitur" style="text;strokeColor=none;fillColor=none;html=1;fontSize=24;fontStyle=1;verticalAlign=middle;align=center;fontFamily=Roboto;fontSource=https%3A%2F%2Ffonts.googleapis.com%2Fcss%3Ffamily%3DRoboto;" parent="1" vertex="1">
          <mxGeometry x="420" y="1040" width="100" height="40" as="geometry" />
        </mxCell>
        <mxCell id="YoXsgUGoJQbxuJQZpZ67-28" value="&lt;div&gt;Stealth Startup&lt;/div&gt;&lt;div&gt;CEO&lt;br&gt;&lt;/div&gt;" style="edgeLabel;html=1;align=center;verticalAlign=middle;resizable=0;points=[];fontFamily=Roboto;labelBackgroundColor=none;" parent="1" vertex="1" connectable="0">
          <mxGeometry y="280" as="geometry">
            <mxPoint x="8" y="-4" as="offset" />
          </mxGeometry>
        </mxCell>
        <mxCell id="YoXsgUGoJQbxuJQZpZ67-29" value="" style="group;strokeColor=none;rounded=0;" parent="1" vertex="1" connectable="0">
          <mxGeometry x="97" y="270" width="30" height="700" as="geometry" />
        </mxCell>
        <mxCell id="YoXsgUGoJQbxuJQZpZ67-18" value="" style="line;strokeWidth=1;html=1;fontFamily=Roboto;fontSource=https%3A%2F%2Ffonts.googleapis.com%2Fcss%3Ffamily%3DRoboto;fontSize=18;perimeterSpacing=0;fillColor=#dae8fc;strokeColor=#6c8ebf;sketch=1;" parent="YoXsgUGoJQbxuJQZpZ67-29" vertex="1">
          <mxGeometry y="690" width="30" height="10" as="geometry" />
        </mxCell>
        <mxCell id="YoXsgUGoJQbxuJQZpZ67-20" value="" style="line;strokeWidth=1;html=1;fontFamily=Roboto;fontSource=https%3A%2F%2Ffonts.googleapis.com%2Fcss%3Ffamily%3DRoboto;fontSize=18;perimeterSpacing=0;fillColor=#dae8fc;strokeColor=#6c8ebf;sketch=1;" parent="YoXsgUGoJQbxuJQZpZ67-29" vertex="1">
          <mxGeometry y="540" width="30" height="10" as="geometry" />
        </mxCell>
        <mxCell id="YoXsgUGoJQbxuJQZpZ67-22" value="" style="line;strokeWidth=1;html=1;fontFamily=Roboto;fontSource=https%3A%2F%2Ffonts.googleapis.com%2Fcss%3Ffamily%3DRoboto;fontSize=18;perimeterSpacing=0;fillColor=#dae8fc;strokeColor=#6c8ebf;sketch=1;" parent="YoXsgUGoJQbxuJQZpZ67-29" vertex="1">
          <mxGeometry y="430" width="30" height="10" as="geometry" />
        </mxCell>
        <mxCell id="YoXsgUGoJQbxuJQZpZ67-23" value="" style="line;strokeWidth=1;html=1;fontFamily=Roboto;fontSource=https%3A%2F%2Ffonts.googleapis.com%2Fcss%3Ffamily%3DRoboto;fontSize=18;perimeterSpacing=0;fillColor=#dae8fc;strokeColor=#6c8ebf;sketch=1;" parent="YoXsgUGoJQbxuJQZpZ67-29" vertex="1">
          <mxGeometry y="300" width="30" height="10" as="geometry" />
        </mxCell>
        <mxCell id="YoXsgUGoJQbxuJQZpZ67-24" value="" style="line;strokeWidth=1;html=1;fontFamily=Roboto;fontSource=https%3A%2F%2Ffonts.googleapis.com%2Fcss%3Ffamily%3DRoboto;fontSize=18;perimeterSpacing=0;fillColor=#dae8fc;strokeColor=#6c8ebf;sketch=1;" parent="YoXsgUGoJQbxuJQZpZ67-29" vertex="1">
          <mxGeometry y="180" width="30" height="10" as="geometry" />
        </mxCell>
        <mxCell id="YoXsgUGoJQbxuJQZpZ67-27" value="" style="line;strokeWidth=1;html=1;fontFamily=Roboto;fontSource=https%3A%2F%2Ffonts.googleapis.com%2Fcss%3Ffamily%3DRoboto;fontSize=18;fillColor=#dae8fc;strokeColor=#6c8ebf;sketch=1;" parent="YoXsgUGoJQbxuJQZpZ67-29" vertex="1">
          <mxGeometry width="30" height="10" as="geometry" />
        </mxCell>
        <mxCell id="YoXsgUGoJQbxuJQZpZ67-30" value="" style="group;strokeColor=none;rounded=0;" parent="1" vertex="1" connectable="0">
          <mxGeometry x="380" y="270" width="30" height="700" as="geometry" />
        </mxCell>
        <mxCell id="YoXsgUGoJQbxuJQZpZ67-31" value="" style="line;strokeWidth=1;html=1;fontFamily=Roboto;fontSource=https%3A%2F%2Ffonts.googleapis.com%2Fcss%3Ffamily%3DRoboto;fontSize=18;perimeterSpacing=0;fillColor=#d5e8d4;strokeColor=#82b366;sketch=1;" parent="YoXsgUGoJQbxuJQZpZ67-30" vertex="1">
          <mxGeometry y="690" width="30" height="10" as="geometry" />
        </mxCell>
        <mxCell id="YoXsgUGoJQbxuJQZpZ67-32" value="" style="line;strokeWidth=1;html=1;fontFamily=Roboto;fontSource=https%3A%2F%2Ffonts.googleapis.com%2Fcss%3Ffamily%3DRoboto;fontSize=18;perimeterSpacing=0;fillColor=#d5e8d4;strokeColor=#82b366;shadow=0;sketch=1;" parent="YoXsgUGoJQbxuJQZpZ67-30" vertex="1">
          <mxGeometry y="540" width="30" height="10" as="geometry" />
        </mxCell>
        <mxCell id="YoXsgUGoJQbxuJQZpZ67-33" value="" style="line;strokeWidth=1;html=1;fontFamily=Roboto;fontSource=https%3A%2F%2Ffonts.googleapis.com%2Fcss%3Ffamily%3DRoboto;fontSize=18;perimeterSpacing=0;fillColor=#d5e8d4;strokeColor=#82b366;shadow=0;sketch=1;" parent="YoXsgUGoJQbxuJQZpZ67-30" vertex="1">
          <mxGeometry y="430" width="30" height="10" as="geometry" />
        </mxCell>
        <mxCell id="YoXsgUGoJQbxuJQZpZ67-34" value="" style="line;strokeWidth=1;html=1;fontFamily=Roboto;fontSource=https%3A%2F%2Ffonts.googleapis.com%2Fcss%3Ffamily%3DRoboto;fontSize=18;perimeterSpacing=0;fillColor=#d5e8d4;strokeColor=#82b366;shadow=0;sketch=1;" parent="YoXsgUGoJQbxuJQZpZ67-30" vertex="1">
          <mxGeometry y="300" width="30" height="10" as="geometry" />
        </mxCell>
        <mxCell id="YoXsgUGoJQbxuJQZpZ67-35" value="" style="line;strokeWidth=1;html=1;fontFamily=Roboto;fontSource=https%3A%2F%2Ffonts.googleapis.com%2Fcss%3Ffamily%3DRoboto;fontSize=18;perimeterSpacing=0;fillColor=#d5e8d4;strokeColor=#82b366;shadow=0;sketch=1;" parent="YoXsgUGoJQbxuJQZpZ67-30" vertex="1">
          <mxGeometry y="180" width="30" height="10" as="geometry" />
        </mxCell>
        <mxCell id="YoXsgUGoJQbxuJQZpZ67-36" value="" style="line;strokeWidth=1;html=1;fontFamily=Roboto;fontSource=https%3A%2F%2Ffonts.googleapis.com%2Fcss%3Ffamily%3DRoboto;fontSize=18;perimeterSpacing=0;fillColor=#d5e8d4;strokeColor=#82b366;shadow=0;sketch=1;" parent="YoXsgUGoJQbxuJQZpZ67-30" vertex="1">
          <mxGeometry y="80" width="30" height="10" as="geometry" />
        </mxCell>
        <mxCell id="YoXsgUGoJQbxuJQZpZ67-37" value="" style="line;strokeWidth=1;html=1;fontFamily=Roboto;fontSource=https%3A%2F%2Ffonts.googleapis.com%2Fcss%3Ffamily%3DRoboto;fontSize=18;fillColor=#d5e8d4;strokeColor=#82b366;shadow=0;sketch=1;" parent="YoXsgUGoJQbxuJQZpZ67-30" vertex="1">
          <mxGeometry width="30" height="10" as="geometry" />
        </mxCell>
        <mxCell id="YoXsgUGoJQbxuJQZpZ67-42" value="" style="line;strokeWidth=1;html=1;fontFamily=Roboto;fontSource=https%3A%2F%2Ffonts.googleapis.com%2Fcss%3Ffamily%3DRoboto;fontSize=18;perimeterSpacing=0;fillColor=#f8cecc;strokeColor=#b85450;sketch=1;" parent="1" vertex="1">
          <mxGeometry x="670" y="450" width="30" height="10" as="geometry" />
        </mxCell>
        <mxCell id="YoXsgUGoJQbxuJQZpZ67-43" value="" style="line;strokeWidth=1;html=1;fontFamily=Roboto;fontSource=https%3A%2F%2Ffonts.googleapis.com%2Fcss%3Ffamily%3DRoboto;fontSize=18;perimeterSpacing=0;fillColor=#f8cecc;strokeColor=#b85450;sketch=1;" parent="1" vertex="1">
          <mxGeometry x="670" y="350" width="30" height="10" as="geometry" />
        </mxCell>
        <mxCell id="YoXsgUGoJQbxuJQZpZ67-44" value="" style="line;strokeWidth=1;html=1;fontFamily=Roboto;fontSource=https%3A%2F%2Ffonts.googleapis.com%2Fcss%3Ffamily%3DRoboto;fontSize=18;fillColor=#f8cecc;strokeColor=#b85450;sketch=1;" parent="1" vertex="1">
          <mxGeometry x="670" y="270" width="30" height="10" as="geometry" />
        </mxCell>
        <mxCell id="YoXsgUGoJQbxuJQZpZ67-46" value="&lt;div&gt;Limehome GmbH&lt;br&gt;&lt;/div&gt;&lt;div&gt;Jr. Data &amp;amp; Infrastructure Engineer&lt;br&gt;&lt;/div&gt;" style="edgeLabel;html=1;align=center;verticalAlign=middle;resizable=0;points=[];fontFamily=Roboto;labelBackgroundColor=none;" parent="1" vertex="1" connectable="0">
          <mxGeometry y="460" as="geometry">
            <mxPoint x="8" y="-4" as="offset" />
          </mxGeometry>
        </mxCell>
        <mxCell id="YoXsgUGoJQbxuJQZpZ67-47" value="&lt;div&gt;Limehome GmbH&lt;br&gt;&lt;/div&gt;&lt;div&gt;Business Intelligence Manager&lt;br&gt;&lt;/div&gt;" style="edgeLabel;html=1;align=center;verticalAlign=middle;resizable=0;points=[];fontFamily=Roboto;labelBackgroundColor=none;" parent="1" vertex="1" connectable="0">
          <mxGeometry y="580" as="geometry">
            <mxPoint x="8" y="-4" as="offset" />
          </mxGeometry>
        </mxCell>
        <mxCell id="YoXsgUGoJQbxuJQZpZ67-48" value="&lt;div&gt;TU Munich&lt;/div&gt;&lt;div&gt;Research Student&lt;br&gt;&lt;/div&gt;" style="edgeLabel;html=1;align=center;verticalAlign=middle;resizable=0;points=[];fontFamily=Roboto;labelBackgroundColor=none;" parent="1" vertex="1" connectable="0">
          <mxGeometry x="760" y="460" as="geometry">
            <mxPoint x="8" y="-4" as="offset" />
          </mxGeometry>
        </mxCell>
        <mxCell id="YoXsgUGoJQbxuJQZpZ67-49" value="&lt;div&gt;TU Munich&lt;/div&gt;&lt;div&gt;&amp;nbsp;Paper Development&lt;br&gt;&lt;/div&gt;" style="edgeLabel;html=1;align=center;verticalAlign=middle;resizable=0;points=[];fontFamily=Roboto;labelBackgroundColor=none;" parent="1" vertex="1" connectable="0">
          <mxGeometry x="760" y="490" as="geometry">
            <mxPoint x="6" y="-137" as="offset" />
          </mxGeometry>
        </mxCell>
        <mxCell id="YoXsgUGoJQbxuJQZpZ67-50" value="&lt;div&gt;TU Munich&lt;/div&gt;&lt;div&gt;&amp;nbsp;Paper Acceptance PETS 2022&lt;br&gt;&lt;/div&gt;" style="edgeLabel;html=1;align=center;verticalAlign=middle;resizable=0;points=[];fontFamily=Roboto;labelBackgroundColor=none;" parent="1" vertex="1" connectable="0">
          <mxGeometry x="760" y="414" as="geometry">
            <mxPoint x="6" y="-137" as="offset" />
          </mxGeometry>
        </mxCell>
        <mxCell id="YoXsgUGoJQbxuJQZpZ67-51" value="&lt;div&gt;SAP SE (Intern)&lt;br&gt;&lt;/div&gt;&lt;div&gt;Corporate Finance IT Manager&lt;br&gt;&lt;/div&gt;" style="edgeLabel;html=1;align=center;verticalAlign=middle;resizable=0;points=[];fontFamily=Roboto;labelBackgroundColor=none;" parent="1" vertex="1" connectable="0">
          <mxGeometry y="710" as="geometry">
            <mxPoint x="8" y="-4" as="offset" />
          </mxGeometry>
        </mxCell>
        <mxCell id="YoXsgUGoJQbxuJQZpZ67-52" value="&lt;div&gt;SAP SE (Intern)&lt;/div&gt;&lt;div&gt;Innovation Control Center&lt;br&gt;&lt;/div&gt;" style="edgeLabel;html=1;align=center;verticalAlign=middle;resizable=0;points=[];fontFamily=Roboto;labelBackgroundColor=none;" parent="1" vertex="1" connectable="0">
          <mxGeometry y="970" as="geometry">
            <mxPoint x="8" y="-4" as="offset" />
          </mxGeometry>
        </mxCell>
        <mxCell id="YoXsgUGoJQbxuJQZpZ67-53" value="&lt;div&gt;Lecturio GmbH&lt;br&gt;&lt;/div&gt;&lt;div&gt;Recording Manager&lt;br&gt;&lt;/div&gt;" style="edgeLabel;html=1;align=center;verticalAlign=middle;resizable=0;points=[];fontFamily=Roboto;labelBackgroundColor=none;" parent="1" vertex="1" connectable="0">
          <mxGeometry y="820" as="geometry">
            <mxPoint x="8" y="-4" as="offset" />
          </mxGeometry>
        </mxCell>
        <mxCell id="YoXsgUGoJQbxuJQZpZ67-54" value="&lt;div&gt;Discrete Mathematics&lt;/div&gt;&lt;div&gt;Calculus&lt;/div&gt;&lt;div&gt;Linear Algebra&lt;br&gt;&lt;/div&gt;" style="edgeLabel;html=1;align=center;verticalAlign=middle;resizable=0;points=[];fontFamily=Roboto;labelBackgroundColor=none;" parent="1" vertex="1" connectable="0">
          <mxGeometry x="310" y="970" as="geometry">
            <mxPoint x="8" y="-4" as="offset" />
          </mxGeometry>
        </mxCell>
        <mxCell id="YoXsgUGoJQbxuJQZpZ67-55" value="&lt;div&gt;Algorithms&lt;/div&gt;&lt;div&gt;Data Structures&lt;/div&gt;&lt;div&gt;Theoretical Informatics&lt;br&gt;&lt;/div&gt;" style="edgeLabel;html=1;align=center;verticalAlign=middle;resizable=0;points=[];fontFamily=Roboto;labelBackgroundColor=none;" parent="1" vertex="1" connectable="0">
          <mxGeometry x="310" y="820" as="geometry">
            <mxPoint x="1" y="-4" as="offset" />
          </mxGeometry>
        </mxCell>
        <mxCell id="YoXsgUGoJQbxuJQZpZ67-56" value="&lt;div&gt;Project Management&lt;/div&gt;&lt;div&gt;Software Patterns&lt;/div&gt;&lt;div&gt;Systems Engineering&lt;br&gt;&lt;/div&gt;" style="edgeLabel;html=1;align=center;verticalAlign=middle;resizable=0;points=[];fontFamily=Roboto;labelBackgroundColor=none;" parent="1" vertex="1" connectable="0">
          <mxGeometry x="310" y="700" as="geometry">
            <mxPoint x="1" y="-4" as="offset" />
          </mxGeometry>
        </mxCell>
        <mxCell id="YoXsgUGoJQbxuJQZpZ67-57" value="&lt;div&gt;Functional Programming&lt;/div&gt;&lt;div&gt;Autonomous Software Engineering&lt;/div&gt;&lt;div&gt;Cloud Computing&lt;/div&gt;" style="edgeLabel;html=1;align=center;verticalAlign=middle;resizable=0;points=[];fontFamily=Roboto;labelBackgroundColor=none;" parent="1" vertex="1" connectable="0">
          <mxGeometry x="310" y="585" as="geometry">
            <mxPoint x="1" y="-4" as="offset" />
          </mxGeometry>
        </mxCell>
        <mxCell id="YoXsgUGoJQbxuJQZpZ67-58" value="&lt;div&gt;Distributed Systems&lt;/div&gt;&lt;div&gt;Automation and Process Optimization&lt;br&gt;&lt;/div&gt;" style="edgeLabel;html=1;align=center;verticalAlign=middle;resizable=0;points=[];fontFamily=Roboto;labelBackgroundColor=none;" parent="1" vertex="1" connectable="0">
          <mxGeometry x="300" y="460" as="geometry">
            <mxPoint x="1" y="-4" as="offset" />
          </mxGeometry>
        </mxCell>
        <mxCell id="mFabG4U3AkvwDeqXhMFr-1" value="&lt;div&gt;Masters Thesis&lt;br&gt;&lt;/div&gt;&lt;div&gt;GDPR and Privacy Investigation&lt;/div&gt;&lt;div&gt;(ongoing)&lt;br&gt;&lt;/div&gt;" style="edgeLabel;html=1;align=center;verticalAlign=middle;resizable=0;points=[];fontFamily=Roboto;labelBackgroundColor=none;" vertex="1" connectable="0" parent="1">
          <mxGeometry x="290" y="280" as="geometry">
            <mxPoint x="1" y="-4" as="offset" />
          </mxGeometry>
        </mxCell>
      </root>
    </mxGraphModel>
  </diagram>
</mxfile>
